<svg width="218" height="30" viewBox="0 0 218 30" fill="none" xmlns="http://www.w3.org/2000/svg">
<path d="M0.08 15C0.08 12.52 0.4 10.3733 1.04 8.56C1.70667 6.74666 2.61333 5.25333 3.76 4.08C4.90667 2.88 6.2 2 7.64 1.44C9.08 0.853333 10.5733 0.559999 12.12 0.559999C13.6133 0.559999 14.84 0.719999 15.8 1.04C16.7867 1.33333 17.4933 1.68 17.92 2.08V6.8H17.2C16.8 6.37333 16.2267 5.98666 15.48 5.64C14.7333 5.29333 13.8133 5.12 12.72 5.12C11.2533 5.12 9.94667 5.50667 8.8 6.28C7.68 7.02667 6.78667 8.13333 6.12 9.6C5.48 11.0667 5.16 12.8667 5.16 15C5.16 17.1333 5.48 18.9333 6.12 20.4C6.76 21.8667 7.65333 22.9867 8.8 23.76C9.94667 24.5067 11.2533 24.88 12.72 24.88C13.8133 24.88 14.7333 24.7067 15.48 24.36C16.2267 24.0133 16.8 23.6267 17.2 23.2H17.92V27.92C17.4933 28.2933 16.7867 28.64 15.8 28.96C14.84 29.28 13.6 29.44 12.08 29.44C10.5067 29.44 9 29.16 7.56 28.6C6.12 28.0133 4.84 27.1333 3.72 25.96C2.6 24.76 1.70667 23.2533 1.04 21.44C0.4 19.6267 0.08 17.48 0.08 15ZM19.9562 29V28.12L26.1162 0.999998L35.3963 1.04L41.5962 28.12V29H36.4762L34.9162 21.32H26.6362L25.0763 29H19.9562ZM27.3562 17H34.1562L31.8763 5.64H29.6763L27.3562 17ZM44.5781 0.999998H49.4981V29H44.4981L44.5781 0.999998ZM54.4981 0.999998C56.0981 0.999998 57.5115 1.32 58.7381 1.96C59.9915 2.57333 60.9781 3.50667 61.6981 4.76C62.4181 6.01333 62.7781 7.58667 62.7781 9.48C62.7781 11.4 62.3915 13 61.6181 14.28C60.8448 15.56 59.8315 16.52 58.5781 17.16C57.3515 17.8 56.0448 18.12 54.6581 18.12H46.7781V0.999998H54.4981ZM49.3381 13.88H53.9381C54.6848 13.88 55.3381 13.72 55.8981 13.4C56.4581 13.0533 56.8848 12.5733 57.1781 11.96C57.4981 11.32 57.6581 10.56 57.6581 9.68C57.6581 8.77333 57.4981 8.01333 57.1781 7.4C56.8848 6.76 56.4581 6.28 55.8981 5.96C55.3381 5.64 54.6848 5.48 53.9381 5.48H49.3381V13.88ZM52.4181 15.44L57.0981 15.24L62.7381 28.16V29H57.6581L52.4181 15.44ZM80.6234 0.999998V5.48H71.2634V13.2C72.1168 12.88 73.0234 12.6267 73.9834 12.44C74.9701 12.2267 75.9568 12.1067 76.9434 12.08C77.9301 12.0267 78.8501 12.0533 79.7034 12.16V16.44L79.3434 16.68C78.7034 16.4933 77.9301 16.4 77.0234 16.4C76.1168 16.3733 75.1568 16.44 74.1434 16.6C73.1301 16.7333 72.1701 16.9733 71.2634 17.32V24.52H80.6234V29H66.3434V0.999998H80.6234ZM98.5625 0.999998V5.48H89.2025V13.2C90.0558 12.88 90.9625 12.6267 91.9225 12.44C92.9092 12.2267 93.8958 12.1067 94.8825 12.08C95.8692 12.0267 96.7892 12.0533 97.6425 12.16V16.44L97.2825 16.68C96.6425 16.4933 95.8692 16.4 94.9625 16.4C94.0558 16.3733 93.0958 16.44 92.0825 16.6C91.0692 16.7333 90.1092 16.9733 89.2025 17.32V24.52H98.5625V29H84.2825V0.999998H98.5625ZM102.302 0.999998H107.222V29H102.222L102.302 0.999998ZM112.222 0.999998C113.822 0.999998 115.235 1.32 116.462 1.96C117.715 2.57333 118.702 3.50667 119.422 4.76C120.142 6.01333 120.502 7.58667 120.502 9.48C120.502 11.4 120.115 13 119.342 14.28C118.568 15.56 117.555 16.52 116.302 17.16C115.075 17.8 113.768 18.12 112.382 18.12H104.502V0.999998H112.222ZM107.062 13.88H111.662C112.408 13.88 113.062 13.72 113.622 13.4C114.182 13.0533 114.608 12.5733 114.902 11.96C115.222 11.32 115.382 10.56 115.382 9.68C115.382 8.77333 115.222 8.01333 114.902 7.4C114.608 6.76 114.182 6.28 113.622 5.96C113.062 5.64 112.408 5.48 111.662 5.48H107.062V13.88ZM110.142 15.44L114.822 15.24L120.462 28.16V29H115.382L110.142 15.44ZM139.867 21.84C139.867 23.44 139.52 24.8133 138.827 25.96C138.134 27.08 137.16 27.9467 135.907 28.56C134.68 29.1733 133.267 29.48 131.667 29.48C130.36 29.48 129.16 29.32 128.067 29C127 28.7067 126.067 28.3467 125.267 27.92C124.494 27.4933 123.92 27.1333 123.547 26.84V22H124.227C125.054 22.7733 126.107 23.4667 127.387 24.08C128.667 24.6667 129.907 24.96 131.107 24.96C131.8 24.96 132.427 24.8533 132.987 24.64C133.547 24.4 134 24.0667 134.347 23.64C134.694 23.2133 134.867 22.68 134.867 22.04C134.867 21.1867 134.614 20.48 134.107 19.92C133.627 19.36 132.88 18.7733 131.867 18.16L128.067 15.84C127.267 15.36 126.467 14.8 125.667 14.16C124.894 13.52 124.24 12.72 123.707 11.76C123.2 10.7733 122.947 9.58667 122.947 8.2C122.947 6.52 123.307 5.12 124.027 4C124.747 2.85333 125.707 2 126.907 1.44C128.134 0.853333 129.48 0.559999 130.947 0.559999C132.174 0.559999 133.267 0.693332 134.227 0.959999C135.214 1.2 136.08 1.52 136.827 1.92C137.574 2.29333 138.174 2.70667 138.627 3.16V8H137.987C137.214 7.14667 136.24 6.45333 135.067 5.92C133.894 5.36 132.654 5.08 131.347 5.08C130.387 5.08 129.574 5.32 128.907 5.8C128.267 6.25333 127.947 6.92 127.947 7.8C127.947 8.65333 128.28 9.4 128.947 10.04C129.64 10.68 130.494 11.3067 131.507 11.92L135.187 14.24C136.094 14.8 136.894 15.4267 137.587 16.12C138.307 16.8133 138.867 17.6267 139.267 18.56C139.667 19.4667 139.867 20.56 139.867 21.84ZM157.184 0.999998V5.48H147.824V13.2C148.678 12.88 149.584 12.6267 150.544 12.44C151.531 12.2267 152.518 12.1067 153.504 12.08C154.491 12.0267 155.411 12.0533 156.264 12.16V16.44L155.904 16.68C155.264 16.4933 154.491 16.4 153.584 16.4C152.678 16.3733 151.718 16.44 150.704 16.6C149.691 16.7333 148.731 16.9733 147.824 17.32V24.52H157.184V29H142.904V0.999998H157.184ZM174.643 0.999998H179.443V29H173.723L165.963 9.96H165.483L165.683 29H160.843V0.999998H166.563L174.363 20.24H174.843L174.643 0.999998ZM199.934 21.84C199.934 23.44 199.587 24.8133 198.894 25.96C198.201 27.08 197.227 27.9467 195.974 28.56C194.747 29.1733 193.334 29.48 191.734 29.48C190.427 29.48 189.227 29.32 188.134 29C187.067 28.7067 186.134 28.3467 185.334 27.92C184.561 27.4933 183.987 27.1333 183.614 26.84V22H184.294C185.121 22.7733 186.174 23.4667 187.454 24.08C188.734 24.6667 189.974 24.96 191.174 24.96C191.867 24.96 192.494 24.8533 193.054 24.64C193.614 24.4 194.067 24.0667 194.414 23.64C194.761 23.2133 194.934 22.68 194.934 22.04C194.934 21.1867 194.681 20.48 194.174 19.92C193.694 19.36 192.947 18.7733 191.934 18.16L188.134 15.84C187.334 15.36 186.534 14.8 185.734 14.16C184.961 13.52 184.307 12.72 183.774 11.76C183.267 10.7733 183.014 9.58667 183.014 8.2C183.014 6.52 183.374 5.12 184.094 4C184.814 2.85333 185.774 2 186.974 1.44C188.201 0.853333 189.547 0.559999 191.014 0.559999C192.241 0.559999 193.334 0.693332 194.294 0.959999C195.281 1.2 196.147 1.52 196.894 1.92C197.641 2.29333 198.241 2.70667 198.694 3.16V8H198.054C197.281 7.14667 196.307 6.45333 195.134 5.92C193.961 5.36 192.721 5.08 191.414 5.08C190.454 5.08 189.641 5.32 188.974 5.8C188.334 6.25333 188.014 6.92 188.014 7.8C188.014 8.65333 188.347 9.4 189.014 10.04C189.707 10.68 190.561 11.3067 191.574 11.92L195.254 14.24C196.161 14.8 196.961 15.4267 197.654 16.12C198.374 16.8133 198.934 17.6267 199.334 18.56C199.734 19.4667 199.934 20.56 199.934 21.84ZM217.252 0.999998V5.48H207.892V13.2C208.745 12.88 209.652 12.6267 210.612 12.44C211.598 12.2267 212.585 12.1067 213.572 12.08C214.558 12.0267 215.478 12.0533 216.332 12.16V16.44L215.972 16.68C215.332 16.4933 214.558 16.4 213.652 16.4C212.745 16.3733 211.785 16.44 210.772 16.6C209.758 16.7333 208.798 16.9733 207.892 17.32V24.52H217.252V29H202.972V0.999998H217.252Z" fill="#24201F" fill-opacity="0.9"/>
</svg>
