<svg class="svg" xmlns="http://www.w3.org/2000/svg" xmlns:xlink="http://www.w3.org/1999/xlink" width="10" height="10"><path d="M6.42171 4.26131L2.17433 8.50869H1.4849V7.81926L5.73228 3.57188M6.42171 4.26131L5.73228 3.57188M6.42171 4.26131L6.07699 3.9166L5.73228 3.57188M8.52693 3.54726L6.43402 1.47897L7.12345 0.789543C7.31222 0.60077 7.54408 0.506384 7.81903 0.506384C8.09399 0.506384 8.32585 0.60077 8.51462 0.789543L9.20405 1.47897C9.39282 1.66774 9.49131 1.8955 9.49952 2.16225C9.50773 2.42899 9.41744 2.65675 9.22867 2.84552L8.52693 3.54726ZM7.81288 4.27362L2.59291 9.49359H0.5V7.40068L5.71997 2.18071L7.81288 4.27362Z" fill="none" stroke-width="1" stroke-opacity="0.898" stroke="#000000"></path></svg>